# Blender v2.83.1 OBJ File: 'stopsign.blend'
# www.blender.org
mtllib stopsign.mtl
o Stop_Cylinder
v -0.022815 0.000117 0.000000
v -0.022815 1.412430 0.000000
v -0.007050 1.412430 -0.021699
v -0.007050 0.000117 -0.021699
v 0.018459 1.412430 -0.013410
v 0.018459 0.000117 -0.013410
v 0.018459 1.412430 0.013410
v 0.018459 0.000117 0.013410
v -0.007050 1.412430 0.021699
v -0.007050 0.000117 0.021699
v 0.014313 1.319601 -0.207639
v 0.046998 1.319601 -0.207639
v 0.046998 1.197969 -0.086007
v 0.014313 1.197969 -0.086007
v 0.046998 1.197969 0.086007
v 0.014313 1.197969 0.086007
v 0.046998 1.319601 0.207639
v 0.014313 1.319601 0.207639
v 0.046998 1.491615 0.207639
v 0.014313 1.491615 0.207639
v 0.046998 1.613244 0.086007
v 0.014313 1.613244 0.086007
v 0.046998 1.613244 -0.086007
v 0.014313 1.613244 -0.086007
v 0.014313 1.491615 -0.207639
v 0.046998 1.491615 -0.207639
v 0.046998 1.491615 0.207639
v 0.046998 1.613244 0.086007
vt 0.000000 0.000000
vt 0.000000 0.000000
vt 0.000000 0.000000
vt 0.000000 0.000000
vt 0.127515 0.076378
vt 0.061657 0.076378
vt 0.061657 0.075128
vt 0.127515 0.075128
vt 0.061657 0.073877
vt 0.127515 0.073877
vt 0.000000 0.000000
vt 0.000000 0.000000
vt 0.000000 0.000000
vt 0.000000 0.000000
vt 0.061657 0.072626
vt 0.127515 0.072627
vt 0.000000 0.000000
vt 0.000000 0.000000
vt 0.105309 0.935477
vt 0.099826 0.932966
vt 0.099601 0.907250
vt 0.105309 0.905257
vt 0.081803 0.888657
vt 0.084574 0.883359
vt 0.057004 0.887467
vt 0.055070 0.881799
vt 0.040126 0.905443
vt 0.034623 0.903111
vt 0.041396 0.931147
vt 0.035803 0.933032
vt 0.057555 0.950606
vt 0.054649 0.955873
vt 0.084289 0.956732
vt 0.082289 0.951080
vt 0.083005 0.895748
vt 0.097272 0.910015
vt 0.097272 0.930191
vt 0.083005 0.944458
vt 0.062829 0.944458
vt 0.048562 0.930191
vt 0.048562 0.910015
vt 0.062829 0.895748
vt 0.030544 0.110966
vt 0.083681 0.019389
vt 0.085509 0.020433
vt 0.032414 0.111541
vt 0.998514 0.292590
vt 0.998616 0.707354
vt 0.707451 0.998600
vt 0.292645 0.998604
vt 0.001401 0.707513
vt 0.001475 0.293457
vt 0.292465 0.001365
vt 0.707300 0.001368
vn -0.8090 0.0000 -0.5878
vn 0.3090 0.0000 -0.9510
vn 1.0000 0.0000 0.0000
vn 0.0000 1.0000 -0.0000
vn -0.8090 -0.0000 0.5878
vn 0.3090 -0.0000 0.9510
vn 0.0000 -1.0000 -0.0000
vn 0.0000 -0.7071 -0.7071
vn 0.0000 -0.7071 0.7071
vn 0.0000 0.0000 1.0000
vn 0.0000 0.7071 0.7071
vn 0.0000 0.0000 -1.0000
vn 0.0000 0.7071 -0.7071
vn -1.0000 -0.0000 0.0000
g Stop_Cylinder_Stop_Cylinder_StopMaterial
usemtl StopMaterial
s 1
f 1/1/1 2/2/1 3/3/1 4/4/1
f 4/5/2 3/6/2 5/7/2 6/8/2
f 6/8/3 5/7/3 7/9/3 8/10/3
f 3/3/4 2/2/4 9/11/4 7/12/4 5/13/4
f 10/14/5 9/11/5 2/2/5 1/1/5
f 8/10/6 7/9/6 9/15/6 10/16/6
f 1/1/7 4/4/7 6/17/7 8/18/7 10/14/7
f 11/19/8 12/20/8 13/21/8 14/22/8
f 14/22/7 13/21/7 15/23/7 16/24/7
f 16/24/9 15/23/9 17/25/9 18/26/9
f 18/26/10 17/25/10 19/27/10 20/28/10
f 20/28/11 19/27/11 21/29/11 22/30/11
f 22/30/4 21/29/4 23/31/4 24/32/4
f 25/33/12 26/34/12 12/20/12 11/19/12
f 24/32/13 23/31/13 26/34/13 25/33/13
f 11/35/14 14/36/14 16/37/14 18/38/14 20/39/14 22/40/14 24/41/14 25/42/14
f 21/43/10 19/44/10 27/45/10 28/46/10
f 12/47/3 26/48/3 23/49/3 28/50/3 27/51/3 17/52/3 15/53/3 13/54/3
